HIERARCHY
ROOT Hips
{
	OFFSET 2.614123 106.211494 -0.877036
	CHANNELS 6 Xposition Yposition Zposition Xrotation Yrotation Zrotation
	JOINT Chest
	{
		OFFSET 0.288639 13.522850 1.789830
		CHANNELS 3 Xrotation Yrotation Zrotation
		JOINT Chest2
		{
			OFFSET -0.559170 21.218872 2.917736
			CHANNELS 3 Xrotation Yrotation Zrotation
			JOINT Chest3
			{
				OFFSET -0.460693 14.901215 -0.749410
				CHANNELS 3 Xrotation Yrotation Zrotation
				JOINT Neck
				{
					OFFSET 0.414212 17.205246 1.556870
					CHANNELS 3 Xrotation Yrotation Zrotation
					JOINT Head
					{
						OFFSET -0.541369 10.389648 1.260921
						CHANNELS 3 Xrotation Yrotation Zrotation
						End Site
						{
							OFFSET -0.536815 10.398407 1.188499
						}
					}
				}
				JOINT LeftCollar
				{
					OFFSET 4.687221 12.858963 3.805427
					CHANNELS 3 Xrotation Yrotation Zrotation
					JOINT LeftUpArm
					{
						OFFSET 14.432188 -5.196442 -8.556183
						CHANNELS 3 Xrotation Yrotation Zrotation
						JOINT LeftLowArm
						{
							OFFSET 4.068319 -33.435501 2.290038
							CHANNELS 3 Xrotation Yrotation Zrotation
							JOINT LeftHand
							{
								OFFSET -0.565197 -27.546715 11.908245
								CHANNELS 3 Xrotation Yrotation Zrotation
								End Site
								{
									OFFSET -0.123524 -6.020493 2.602617
								}
							}
						}
					}
				}
				JOINT RightCollar
				{
					OFFSET -3.712373 13.015060 4.316848
					CHANNELS 3 Xrotation Yrotation Zrotation
					JOINT RightUpArm
					{
						OFFSET -15.045645 -5.394257 -7.281952
						CHANNELS 3 Xrotation Yrotation Zrotation
						JOINT RightLowArm
						{
							OFFSET -4.465519 -33.238052 3.876353
							CHANNELS 3 Xrotation Yrotation Zrotation
							JOINT RightHand
							{
								OFFSET 5.637517 -27.161911 11.463165
								CHANNELS 3 Xrotation Yrotation Zrotation
								End Site
								{
									OFFSET 1.232137 -5.936501 2.505398
								}
							}
						}
					}
				}
			}
		}
	}
	JOINT LeftUpLeg
	{
		OFFSET 10.017042 -0.234169 0.152227
		CHANNELS 3 Xrotation Yrotation Zrotation
		JOINT LeftLowLeg
		{
			OFFSET 3.373206 -47.004700 -4.813537
			CHANNELS 3 Xrotation Yrotation Zrotation
			JOINT LeftFoot
			{
				OFFSET -0.183412 -42.688210 -13.351113
				CHANNELS 3 Xrotation Yrotation Zrotation
				JOINT LeftToe
				{
					OFFSET 0.075450 -16.620699 16.831711
					CHANNELS 3 Xrotation Yrotation Zrotation
					End Site
					{
						OFFSET 1.319958 -2.197634 23.515676
					}
				}
			}
		}
	}
	JOINT RightUpLeg
	{
		OFFSET -10.017051 0.233971 -0.152253
		CHANNELS 3 Xrotation Yrotation Zrotation
		JOINT RightLowLeg
		{
			OFFSET -3.494547 -47.241615 -0.172711
			CHANNELS 3 Xrotation Yrotation Zrotation
			JOINT RightFoot
			{
				OFFSET 1.388591 -42.214127 -14.717978
				CHANNELS 3 Xrotation Yrotation Zrotation
				JOINT RightToe
				{
					OFFSET -1.715039 -17.815992 15.466277
					CHANNELS 3 Xrotation Yrotation Zrotation
					End Site
					{
						OFFSET -4.493478 -3.976000 22.881350
					}
				}
			}
		}
	}
}
MOTION
Frames: 12
Frame Time: 0.033333
-2.995341 97.780266 -4.064801 9.490021 20.624306 -21.180220 13.764333 -0.166262 4.939244 -3.571794 -10.454253 13.008014 -7.256483 10.131749 5.579709 0.268440 -21.458940 16.809229 0.000002 -0.000001 0.000000 -0.880326 -9.067658 53.922448 -13.224206 -15.858803 79.517991 -38.852097 4.829441 72.439613 0.000006 0.000001 -0.000001 -8.240624 5.647986 -11.018538 -24.253681 4.803302 -46.519370 -18.398253 -18.503655 -38.868933 0.000001 -0.000006 0.000003 -50.784977 -11.292284 15.002480 43.824703 -28.865312 -93.226516 -20.254769 51.644017 40.896847 -0.000001 -0.000001 -0.000001 -22.170972 -4.220429 18.626595 14.451558 2.675559 16.247256 -13.656269 -24.637826 -13.754920 -0.000000 -0.000000 -0.000002 
-3.005445 97.708809 -4.097085 9.027331 20.690511 -21.362964 14.581593 -0.161712 5.115710 -3.422783 -10.537313 13.146944 -7.709551 10.741858 5.666445 0.220166 -21.738587 17.081625 0.000000 -0.000001 -0.000000 -0.292976 -10.077017 54.337092 -13.281838 -15.702233 79.293456 -40.438893 3.587028 70.548676 0.000003 -0.000002 -0.000003 -8.297019 5.614911 -11.033427 -24.363782 4.798139 -46.275034 -18.547695 -18.333030 -39.123610 -0.000004 -0.000006 0.000003 -50.586177 -11.349216 15.237551 43.855449 -28.981811 -93.492080 -21.698428 51.253309 41.898634 -0.000003 -0.000001 -0.000000 -21.833391 -4.322517 19.087684 14.911700 2.816393 16.256812 -14.062226 -24.830439 -14.073985 0.000000 -0.000000 -0.000002 
-3.023052 97.636971 -4.137686 9.448155 20.637816 -21.505595 13.964739 -0.148639 4.958876 -2.846291 -10.666951 13.465370 -7.769976 10.545194 5.454846 -0.429127 -21.934700 17.047969 -0.000001 0.000000 0.000001 -0.133121 -10.242103 54.522091 -13.023316 -14.766493 79.568500 -40.467570 3.437942 71.804768 0.000001 0.000002 -0.000000 -8.272658 5.738035 -10.955755 -24.381914 4.720195 -46.088532 -19.247430 -18.216307 -39.464485 0.000002 -0.000007 0.000002 -51.205877 -11.402574 15.057996 44.071761 -29.320418 -93.440314 -22.410061 51.337802 42.633143 0.000000 -0.000003 -0.000001 -22.547718 -4.355830 19.032587 15.020795 2.921161 16.286653 -14.412871 -24.893833 -14.326090 -0.000000 0.000001 -0.000001 
-3.047414 97.569496 -4.179124 9.709029 20.829152 -21.617690 14.059885 -0.162802 5.049429 -3.544987 -10.608162 13.192328 -7.344878 10.764011 5.586344 -0.643691 -22.106404 17.138939 0.000000 -0.000000 0.000001 -0.135527 -10.391383 54.215982 -13.027408 -14.924592 79.795454 -40.586091 3.436612 71.378714 0.000001 0.000002 -0.000004 -8.390204 5.558605 -10.914746 -24.319548 4.458207 -46.242580 -19.618376 -18.226565 -39.802518 0.000005 -0.000004 0.000000 -51.567317 -11.429868 14.935626 43.968831 -29.269403 -93.720550 -22.548529 51.334766 42.718810 -0.000002 -0.000001 -0.000000 -22.544767 -4.416480 19.258475 14.775531 2.814092 16.024285 -14.527597 -24.885248 -14.364602 -0.000000 0.000000 -0.000001 
-3.071446 97.506241 -4.231488 10.163841 20.734223 -21.634064 13.710349 -0.167656 4.969782 -3.611557 -10.625166 13.209396 -7.350901 10.977797 5.533646 -0.805908 -22.017595 17.036981 0.000001 -0.000000 -0.000000 -0.020441 -10.549817 54.156843 -12.841281 -14.418171 79.661275 -40.222701 3.538212 72.239892 0.000004 0.000002 -0.000004 -8.436744 5.190202 -10.969242 -24.376959 4.708814 -46.122423 -19.720853 -18.067160 -40.109842 0.000001 -0.000009 -0.000003 -51.972122 -11.454734 14.840319 44.034837 -29.293821 -93.628868 -22.389416 51.451453 42.690212 -0.000001 0.000001 0.000000 -22.964308 -4.420364 19.114074 14.183578 2.675278 15.881918 -13.467787 -25.145801 -13.976280 -0.000001 0.000001 -0.000000 
-3.097592 97.439880 -4.275434 9.885011 20.627031 -21.653305 13.631289 -0.167936 4.856908 -3.008707 -10.659159 13.397600 -7.759082 10.701579 5.451682 -0.571610 -21.874231 16.938511 0.000001 0.000000 0.000000 -0.121614 -10.315029 54.238922 -12.936753 -14.905375 79.403408 -40.863130 2.848445 71.742593 0.000004 0.000005 -0.000002 -8.415541 5.050571 -10.877752 -24.494119 4.866585 -45.547137 -19.964515 -17.858815 -40.353895 0.000001 -0.000010 -0.000001 -51.750093 -11.592170 15.150331 43.886520 -29.263744 -93.932545 -22.406811 51.144357 42.319808 -0.000002 -0.000003 0.000001 -22.402317 -4.505230 19.596808 14.405892 2.769466 15.551548 -13.345904 -24.833644 -13.648282 0.000000 0.000000 -0.000002 
-3.123847 97.385574 -4.315818 9.791378 20.642281 -21.647195 14.071153 -0.175929 4.975982 -3.322659 -10.600006 13.202330 -7.626325 10.770034 5.531176 -0.766730 -21.937861 16.873984 0.000000 0.000000 0.000002 -0.144689 -10.346491 54.062805 -12.819574 -14.700476 79.599284 -40.898363 2.835052 71.109147 0.000002 -0.000003 -0.000001 -8.339546 5.390356 -10.818488 -24.306198 4.629216 -45.913536 -20.123892 -17.734431 -40.520801 -0.000001 -0.000004 -0.000000 -51.484969 -11.625423 15.350022 43.689739 -29.055058 -94.216265 -22.351601 50.659978 41.932966 -0.000001 0.000001 -0.000001 -22.436881 -4.475339 19.391001 14.275348 2.623657 15.863251 -12.962382 -24.752368 -13.483460 0.000002 0.000000 -0.000000 
-3.160764 97.328705 -4.353984 9.911679 20.811496 -21.887777 14.233934 -0.173109 5.145689 -3.728320 -10.699899 13.258136 -7.368589 10.815858 5.416889 -0.924918 -22.004559 16.874090 0.000001 -0.000000 -0.000001 -0.114322 -10.413046 54.049411 -12.502259 -14.098671 80.007484 -39.858170 3.528200 72.958120 0.000003 0.000003 -0.000001 -8.441602 4.970153 -10.489721 -24.537936 5.134077 -45.880047 -20.396601 -17.630742 -40.707347 -0.000002 -0.000003 -0.000002 -51.392061 -11.782952 15.507519 43.298512 -28.717687 -94.660213 -22.325455 51.536537 42.536963 -0.000001 -0.000001 0.000001 -22.487508 -4.462255 19.524024 14.226268 2.537433 16.129712 -12.979009 -24.851510 -13.538255 -0.000000 0.000001 -0.000003 
-3.196951 97.271049 -4.385152 10.168491 20.827579 -22.138007 13.817801 -0.162597 5.123196 -3.306588 -10.811046 13.518032 -7.464036 10.909194 5.433360 -0.832207 -21.921496 16.814659 0.000002 0.000001 -0.000002 0.050915 -10.587659 54.216440 -12.689174 -14.154711 79.825855 -40.672291 2.847225 72.956638 0.000005 0.000002 -0.000005 -8.351488 5.589242 -10.420799 -24.648725 5.112023 -46.156707 -20.234394 -17.873362 -40.687775 0.000004 -0.000008 0.000003 -52.020244 -11.824003 15.339623 43.423221 -28.909131 -94.765036 -22.244493 51.794182 42.609514 0.000000 0.000001 -0.000001 -23.577820 -4.515867 19.255420 14.969321 2.650120 16.697775 -13.388875 -25.160612 -13.947492 -0.000000 0.000001 -0.000002 
-3.244609 97.211151 -4.413753 10.400728 20.639462 -22.346455 13.931299 -0.168432 5.072249 -2.994625 -10.745072 13.542246 -7.596823 11.022290 5.682486 -1.769146 -21.884537 16.651018 -0.000001 0.000000 0.000002 -0.014874 -10.246727 54.515787 -12.573510 -14.124417 79.856516 -40.935045 2.704942 71.948441 0.000009 0.000002 -0.000004 -8.194282 6.112338 -10.639757 -24.575412 5.253230 -46.263450 -20.163142 -18.003761 -41.181516 0.000002 0.000001 0.000001 -52.109012 -12.027134 15.594893 43.650250 -29.194366 -94.838010 -22.636825 51.567706 42.992793 -0.000000 0.000001 -0.000000 -24.470732 -4.599658 19.339646 15.645607 2.786482 16.821694 -14.065749 -25.298293 -14.399062 0.000000 0.000001 -0.000002 
-3.293333 97.139275 -4.445895 9.839144 20.947996 -22.617958 14.305549 -0.202156 5.251665 -3.386296 -10.862299 13.668853 -7.217502 10.522760 5.590226 -1.489218 -21.667711 16.669910 0.000001 -0.000000 0.000000 0.115062 -10.027678 54.802060 -12.354437 -14.082517 79.710234 -41.016519 2.422778 72.145772 -0.000001 0.000003 -0.000003 -8.066153 6.004100 -10.441609 -24.400712 5.314956 -45.712482 -20.835550 -17.745429 -41.441729 0.000000 -0.000003 0.000001 -51.902621 -12.044511 15.637850 42.825276 -28.521338 -95.525325 -23.527152 52.129387 44.172029 -0.000001 0.000000 -0.000001 -23.606959 -4.632539 19.927311 15.418688 2.779253 16.872065 -13.792692 -25.515635 -14.434524 0.000000 0.000001 -0.000002 
-3.338875 97.076401 -4.483300 9.729256 21.112139 -22.662996 14.732090 -0.216051 5.363138 -3.128675 -10.743231 13.597908 -7.671490 10.343374 5.639323 -1.511476 -21.384646 16.521650 0.000001 -0.000001 0.000000 -0.197027 -9.491410 54.688775 -12.147569 -14.195081 79.886439 -40.342669 2.776844 73.853831 0.000005 -0.000002 -0.000004 -7.892995 6.478892 -10.435096 -24.163012 5.300762 -45.657943 -20.911049 -17.780109 -41.784092 0.000001 -0.000004 0.000000 -51.911931 -11.980954 15.461566 42.774896 -28.558204 -95.545071 -23.795563 52.523188 44.549677 -0.000001 -0.000002 -0.000002 -24.273560 -4.546255 19.577709 15.638702 2.931215 17.485945 -13.655164 -26.021067 -14.558241 -0.000000 0.000001 -0.000000 
